<?xml version="1.0" standalone="no"?>
<!DOCTYPE svg PUBLIC "-//W3C//DTD SVG 20010904//EN"
 "http://www.w3.org/TR/2001/REC-SVG-20010904/DTD/svg10.dtd">
<svg version="1.0" xmlns="http://www.w3.org/2000/svg"
 width="1024.000000pt" height="1024.000000pt" viewBox="0 0 1024.000000 1024.000000"
 preserveAspectRatio="xMidYMid meet">

<g transform="translate(0.000000,1024.000000) scale(0.100000,-0.100000)"
fill="#000000" stroke="none">
<path d="M4820 7674 c-556 -65 -986 -255 -1414 -624 -422 -364 -753 -955 -850
-1515 -9 -49 -21 -163 -27 -253 -39 -549 108 -1107 411 -1559 83 -125 269
-345 361 -427 111 -100 439 -339 439 -320 0 12 -79 311 -106 404 -33 110 -59
154 -151 254 -326 353 -517 761 -573 1226 -13 110 -13 395 1 518 29 264 134
579 212 636 86 63 502 -21 766 -154 115 -58 253 -147 347 -225 38 -31 191
-179 339 -329 149 -149 317 -314 374 -366 57 -52 190 -189 296 -305 224 -246
318 -335 476 -455 269 -202 540 -315 876 -364 61 -9 133 -16 160 -16 67 0 81
-11 59 -45 -73 -112 -283 -319 -453 -448 -278 -211 -631 -350 -994 -393 -400
-46 -702 35 -909 245 -116 118 -162 252 -163 471 -1 150 10 220 55 354 67 200
173 372 389 633 50 59 79 103 79 118 0 51 -130 157 -211 170 -36 6 -47 3 -94
-29 -79 -55 -274 -254 -357 -364 -129 -170 -205 -337 -249 -542 -32 -148 -33
-421 -2 -560 28 -127 79 -262 139 -362 66 -110 220 -266 329 -330 250 -149
560 -214 899 -190 362 26 624 96 941 252 501 247 892 631 1193 1175 157 284
252 576 282 864 15 156 13 510 -5 648 -61 463 -250 904 -535 1246 -108 129
-289 300 -399 377 -52 36 -139 97 -195 136 -55 40 -102 70 -104 69 -2 -2 1
-12 7 -23 6 -11 24 -85 41 -164 50 -240 79 -308 180 -413 294 -308 482 -630
575 -990 120 -465 78 -1064 -99 -1415 -48 -95 -74 -110 -197 -110 -339 0 -669
105 -944 299 -84 59 -328 297 -529 514 -65 70 -179 180 -253 244 -74 63 -217
204 -318 313 -221 237 -342 352 -474 454 -224 172 -443 282 -686 346 -116 31
-294 60 -364 60 -22 0 -41 4 -41 9 0 21 129 172 236 277 360 356 805 560 1316
605 251 22 472 -7 626 -81 161 -77 256 -160 312 -271 48 -94 70 -195 70 -318
0 -341 -138 -672 -427 -1027 -114 -139 -118 -146 -99 -183 30 -57 167 -151
220 -151 34 0 77 32 185 136 361 346 533 720 534 1159 0 212 -36 376 -119 540
-53 105 -112 182 -214 278 -145 138 -302 220 -510 265 -103 22 -141 25 -370
27 -140 2 -271 1 -290 -1z"/>
</g>
</svg>
